<?xml version="1.0" encoding="UTF-8" standalone="no"?>
<svg xmlns="http://www.w3.org/2000/svg"
    width="12.288"
    height="9.219"
    fill="#000"
    viewBox="0 0 122.88 92.19">

    <path
        d="m 77.817743,32.333857 c -1.469451,-1.46945 -1.469451,-3.841562 0,-5.300516 1.46945,-1.469451 3.841562,-1.469451 5.300516,0 L 96.79465,40.709723 110.47103,27.033341 c 1.46945,-1.469451 3.84156,-1.469451 5.30052,0 1.46945,1.46945 1.46945,3.841562 0,5.300516 l -13.66589,13.676383 13.67638,13.676383 c 1.46945,1.46945 1.46945,3.841563 0,5.300517 -1.46945,1.46945 -3.84156,1.46945 -5.30051,0 L 96.80514,51.310757 83.128755,64.98714 c -1.46945,1.46945 -3.841562,1.46945 -5.300516,0 -1.46945,-1.46945 -1.46945,-3.841563 0,-5.300517 L 91.504622,46.01024 Z M 10.47,21.755015 H 34.74 L 55.4,0.96501465 c 1.28,-1.28 3.35,-1.29 4.63,-0.01 C 60.68,1.5850146 61,2.4250147 61,3.2750146 h 0.01 V 88.765015 c 0,1.81 -1.47,3.29 -3.29,3.29 -0.92,0 -1.75,-0.38 -2.35,-0.99 l -20.46,-17.26 H 10.47 c -2.88,0 -5.5,-1.18 -7.39,-3.07 -1.9,-1.89 -3.08,-4.51 -3.08,-7.39 v -31.12 c 0,-2.88 1.18,-5.5 3.07,-7.39 1.9,-1.9 4.52,-3.08 7.4,-3.08 z m 25.62,6.57 H 10.47 c -1.07,0 -2.04,0.44 -2.75,1.15 -0.71,0.71 -1.15,1.68 -1.15,2.75 v 31.12 c 0,1.07 0.44,2.04 1.15,2.75 0.71,0.71 1.68,1.15 2.75,1.15 h 25.62 v 0.02 c 0.74,0 1.49,0.25 2.1,0.77 l 16.25,13.69 v -70.5 l -15.85,15.95 c -0.61,0.71 -1.5,1.15 -2.5,1.15 z" />
</svg>
