<?xml version="1.0" encoding="UTF-8" standalone="no"?>
<svg xmlns="http://www.w3.org/2000/svg"
    width="12.288"
    height="9.219"
    fill="#000"
    viewBox="0 0 122.88 92.19">

    <path
       d="m 78.37,9.74 c -1.81,0 -3.29,-1.47 -3.29,-3.29 0,-1.81 1.47,-3.29 3.29,-3.29 12.29,0 23.42,4.98 31.47,13.04 8.06,8.06 13.04,19.18 13.04,31.47 0,12.29 -4.98,23.42 -13.04,31.47 -8.06,8.06 -19.18,13.04 -31.47,13.04 -1.81,0 -3.29,-1.47 -3.29,-3.29 0,-1.82 1.47,-3.29 3.29,-3.29 10.48,0 19.96,-4.25 26.83,-11.11 6.87,-6.87 11.11,-16.35 11.11,-26.83 0,-10.48 -4.25,-19.96 -11.11,-26.83 C 98.33,13.98 88.84,9.74 78.37,9.74 Z M 10.47,21.76 H 34.74 L 55.4,0.97 C 56.68,-0.31 58.75,-0.32 60.03,0.96 60.68,1.59 61,2.43 61,3.28 h 0.01 v 85.49 c 0,1.81 -1.47,3.29 -3.29,3.29 -0.92,0 -1.75,-0.38 -2.35,-0.99 L 34.91,73.81 H 10.47 C 7.59,73.81 4.97,72.63 3.08,70.74 1.18,68.85 0,66.23 0,63.35 V 32.23 c 0,-2.88 1.18,-5.5 3.07,-7.39 1.9,-1.9 4.52,-3.08 7.4,-3.08 z m 25.62,6.57 H 10.47 c -1.07,0 -2.04,0.44 -2.75,1.15 -0.71,0.71 -1.15,1.68 -1.15,2.75 v 31.12 c 0,1.07 0.44,2.04 1.15,2.75 0.71,0.71 1.68,1.15 2.75,1.15 h 25.62 v 0.02 c 0.74,0 1.49,0.25 2.1,0.77 L 54.44,81.73 V 11.23 L 38.59,27.18 c -0.61,0.71 -1.5,1.15 -2.5,1.15 z m 40.62,0.19 c -1.5,0 -2.72,-1.22 -2.72,-2.72 0,-1.5 1.22,-2.72 2.72,-2.72 6.98,0 13.3,2.83 17.87,7.4 4.57,4.57 7.4,10.89 7.4,17.87 0,6.98 -2.83,13.3 -7.4,17.87 -4.57,4.57 -10.89,7.4 -17.87,7.4 -1.5,0 -2.72,-1.22 -2.72,-2.72 0,-1.5 1.22,-2.72 2.72,-2.72 5.48,0 10.44,-2.22 14.03,-5.81 3.59,-3.59 5.81,-8.55 5.81,-14.03 0,-5.48 -2.22,-10.44 -5.81,-14.03 -3.6,-3.57 -8.56,-5.79 -14.03,-5.79 z" />
</svg>
